<?xml version="1.0" encoding="UTF-8"?>
<svg width="232px" height="41px" viewBox="0 0 232 41" version="1.1" xmlns="http://www.w3.org/2000/svg" xmlns:xlink="http://www.w3.org/1999/xlink">
    <!-- Generator: Sketch 54.1 (76490) - https://sketchapp.com -->
    <title>fdasgdsfsdf</title>
    <desc>Created with Sketch.</desc>
    <defs>
        <path d="M13.921875,5.6875 L10.328125,6.234375 C10.2109369,4.90624336 9.70312949,4.2421875 8.8046875,4.2421875 C8.16666348,4.2421875 7.74023545,4.4700498 7.52539063,4.92578125 C7.3105458,5.3815127 7.203125,6.19530664 7.203125,7.3671875 L7.203125,10.4726562 L10.71875,10.4726562 L10.71875,14.0859375 L7.203125,14.0859375 L7.203125,27.40625 L11.0703125,27.40625 L11.0703125,31 L0.15234375,31 L0.15234375,27.40625 L3.16015625,27.40625 L3.16015625,14.0859375 L0.15234375,14.0859375 L0.15234375,10.4726562 L3.16015625,10.4726562 L3.16015625,7.2890625 C3.16015625,5.41405313 3.61913604,3.89063086 4.53710938,2.71875 C5.45508271,1.54686914 6.81249102,0.9609375 8.609375,0.9609375 C10.0937574,0.9609375 11.2884069,1.35481377 12.1933594,2.14257812 C13.0983118,2.93034248 13.6744779,4.11197129 13.921875,5.6875 Z M38.2773438,27.40625 L38.2773438,31 L30.5625,31 L30.5625,27.9921875 C28.505198,30.231782 26.0507955,31.3515625 23.1992188,31.3515625 C21.2200422,31.3515625 19.4720128,30.8860724 17.9550781,29.9550781 C16.4381435,29.0240839 15.2597698,27.7578205 14.4199219,26.15625 C13.5800739,24.5546795 13.1601562,22.7838639 13.1601562,20.84375 C13.1601562,18.8645734 13.6061153,17.041675 14.4980469,15.375 C15.3899784,13.708325 16.62369,12.3834685 18.1992188,11.4003906 C19.7747475,10.4173128 21.4804596,9.92578125 23.3164062,9.92578125 C24.6445379,9.92578125 25.9042909,10.1927057 27.0957031,10.7265625 C28.2871153,11.2604193 29.4427027,12.1002547 30.5625,13.2460938 L30.5625,5.12109375 L26.5976562,5.12109375 L26.5976562,1.56640625 L34.5664062,1.56640625 L34.5664062,27.40625 L38.2773438,27.40625 Z M23.9609375,27.7578125 C25.2109438,27.7578125 26.3372346,27.4257846 27.3398438,26.7617188 C28.3424529,26.0976529 29.1302055,25.2122451 29.703125,24.1054688 C30.2760445,22.9986924 30.5625,21.8138084 30.5625,20.5507812 C30.5625,19.2747332 30.2760445,18.1093803 29.703125,17.0546875 C29.1302055,15.9999947 28.3359426,15.1666697 27.3203125,14.5546875 C26.3046824,13.9427053 25.1588605,13.6367188 23.8828125,13.6367188 C22.6458271,13.6367188 21.5423226,13.9654915 20.5722656,14.6230469 C19.6022087,15.2806022 18.8372424,16.1529894 18.2773438,17.2402344 C17.7174451,18.3274794 17.4375,19.4895771 17.4375,20.7265625 C17.4375,22.0546941 17.7239555,23.2525988 18.296875,24.3203125 C18.8697945,25.3880262 19.6510367,26.2278615 20.640625,26.8398438 C21.6302133,27.451826 22.736973,27.7578125 23.9609375,27.7578125 Z M57.7695312,17.71875 L57.7695312,27.40625 L61.2070312,27.40625 L61.2070312,31 L54.2148438,31 L54.2148438,28.4804688 C52.261709,30.3945408 50.0872516,31.3515625 47.6914062,31.3515625 C46.4283791,31.3515625 45.2727917,31.0585967 44.2246094,30.4726562 C43.1764271,29.8867158 42.3365917,29.1022185 41.7050781,28.1191406 C41.0735646,27.1360628 40.7578125,26.0455789 40.7578125,24.8476562 C40.7578125,23.5585873 41.1061163,22.4095103 41.8027344,21.4003906 C42.4993524,20.391271 43.4400982,19.613284 44.625,19.0664062 C45.8099018,18.5195285 47.0012961,18.2460938 48.1992188,18.2460938 C50.2044371,18.2460938 52.072908,18.8320254 53.8046875,20.0039062 L53.8046875,17.796875 C53.8046875,16.1953045 53.4661492,15.0494826 52.7890625,14.359375 C52.1119758,13.6692674 50.9987057,13.3242188 49.4492188,13.3242188 C48.3554633,13.3242188 47.4407589,13.5227845 46.7050781,13.9199219 C45.9693974,14.3170593 45.3606795,14.9192668 44.8789062,15.7265625 L41.0117188,14.7695312 C41.8841189,13.1419189 43.0624926,11.9277384 44.546875,11.1269531 C46.0312574,10.3261679 47.7955627,9.92578125 49.8398438,9.92578125 C52.5872533,9.92578125 54.5956968,10.550775 55.8652344,11.8007812 C57.134772,13.0507875 57.7695312,15.023424 57.7695312,17.71875 Z M48.2382812,28.2460938 C50.2174578,28.2460938 52.072908,27.4192791 53.8046875,25.765625 L53.8046875,23.3632812 C52.0468662,21.9960869 50.2890713,21.3125 48.53125,21.3125 C47.4635363,21.3125 46.5423216,21.6477831 45.7675781,22.3183594 C44.9928347,22.9889356 44.6054688,23.8320262 44.6054688,24.8476562 C44.6054688,25.8242236 44.944007,26.6347624 45.6210938,27.2792969 C46.2981805,27.9238313 47.1705676,28.2460938 48.2382812,28.2460938 Z M75.9335938,11.3515625 L75.9335938,10.4726562 L79.4492188,10.4726562 L79.4492188,17.2890625 L75.9335938,17.2890625 L75.9335938,16.0390625 C74.7617129,14.3593666 73.1601664,13.5195312 71.1289062,13.5195312 C70.0611926,13.5195312 69.1888055,13.7539039 68.5117188,14.2226562 C67.834632,14.6914086 67.4960938,15.2968713 67.4960938,16.0390625 C67.4960938,16.7031283 67.7532526,17.2239564 68.2675781,17.6015625 C68.7819036,17.9791686 69.937491,18.3111965 71.734375,18.5976562 L74.4492188,19.125 C78.4987182,19.8671912 80.5234375,21.8528484 80.5234375,25.0820312 C80.5234375,26.9700615 79.7910229,28.4869734 78.3261719,29.6328125 C76.8613208,30.7786516 74.9179809,31.3515625 72.4960938,31.3515625 C71.5325473,31.3515625 70.5852911,31.2115899 69.6542969,30.9316406 C68.7233026,30.6516913 67.9453156,30.3033875 67.3203125,29.8867188 L67.3203125,31 L63.7265625,31 L63.7265625,23.96875 L67.3203125,23.96875 L67.3203125,24.671875 C67.515626,25.6614633 68.0657507,26.4557262 68.9707031,27.0546875 C69.8756556,27.6536488 70.9270773,27.953125 72.125,27.953125 C73.4401107,27.953125 74.4752566,27.7220075 75.2304688,27.2597656 C75.9856809,26.7975237 76.3632812,26.1106816 76.3632812,25.1992188 C76.3632812,24.5351529 76.0638051,24.037111 75.4648438,23.7050781 C74.8658824,23.3730452 73.6614674,23.0312518 71.8515625,22.6796875 L69.7617188,22.2304688 C67.6913959,21.8138 66.174484,21.0976613 65.2109375,20.0820312 C64.247391,19.0664012 63.765625,17.7708412 63.765625,16.1953125 C63.765625,14.9192645 64.1204392,13.8287806 64.8300781,12.9238281 C65.5397171,12.0188757 66.4479111,11.3385439 67.5546875,10.8828125 C68.6614639,10.4270811 69.8007754,10.1992188 70.9726562,10.1992188 C72.9388119,10.1992188 74.5924412,10.5833295 75.9335938,11.3515625 Z M100.972656,13.4414062 L100.972656,10.4726562 L108.6875,10.4726562 L108.6875,14.0859375 L104.976562,14.0859375 L104.976562,29.4765625 C104.976562,33.0573096 104.074879,35.8209538 102.271484,37.7675781 C100.46809,39.7142024 97.8346527,40.6875 94.3710938,40.6875 C91.0898273,40.6875 88.2903762,39.7630301 85.9726562,37.9140625 L88.5703125,35.0039062 C89.5078172,35.6940139 90.448563,36.2115868 91.3925781,36.5566406 C92.3365933,36.9016944 93.368484,37.0742188 94.4882812,37.0742188 C96.5195414,37.0742188 98.1080672,36.4427146 99.2539062,35.1796875 C100.399745,33.9166604 100.972656,32.2435 100.972656,30.1601562 L100.972656,28.2460938 C100.087235,29.2877656 98.9641995,30.1080699 97.6035156,30.7070312 C96.2428317,31.3059926 94.8854234,31.6054688 93.53125,31.6054688 C91.6301988,31.6054688 89.9212315,31.1237027 88.4042969,30.1601562 C86.8873622,29.1966098 85.7024782,27.9173257 84.8496094,26.3222656 C83.9967405,24.7272056 83.5703125,22.9791762 83.5703125,21.078125 C83.5703125,19.1380111 84.0162716,17.3346437 84.9082031,15.6679688 C85.8001347,14.0012938 87.0208256,12.673182 88.5703125,11.6835938 C90.1197994,10.6940055 91.8385322,10.1992188 93.7265625,10.1992188 C95.0807359,10.1992188 96.3469993,10.4661432 97.5253906,11 C98.7037819,11.5338568 99.852859,12.3476508 100.972656,13.4414062 Z M94.2929688,27.9921875 C95.5690168,27.9921875 96.721349,27.6731803 97.75,27.0351562 C98.778651,26.3971322 99.5794242,25.5377658 100.152344,24.4570312 C100.725263,23.3762967 101.011719,22.2109437 101.011719,20.9609375 C101.011719,19.7890566 100.725263,18.6627658 100.152344,17.5820312 C99.5794242,16.5012967 98.7851613,15.6289096 97.7695312,14.9648438 C96.7539012,14.3007779 95.6211,13.96875 94.3710938,13.96875 C93.1471293,13.96875 92.0338592,14.2877572 91.03125,14.9257812 C90.0286408,15.5638053 89.2473986,16.4231717 88.6875,17.5039062 C88.1276014,18.5846408 87.8476562,19.7499938 87.8476562,21 C87.8476562,22.276048 88.1145807,23.4479113 88.6484375,24.515625 C89.1822943,25.5833387 89.9407503,26.4296844 90.9238281,27.0546875 C91.906906,27.6796906 93.0299416,27.9921875 94.2929688,27.9921875 Z M135.816406,27.40625 L135.816406,31 L128.101562,31 L128.101562,27.9921875 C126.044261,30.231782 123.589858,31.3515625 120.738281,31.3515625 C118.759105,31.3515625 117.011075,30.8860724 115.494141,29.9550781 C113.977206,29.0240839 112.798832,27.7578205 111.958984,26.15625 C111.119136,24.5546795 110.699219,22.7838639 110.699219,20.84375 C110.699219,18.8645734 111.145178,17.041675 112.037109,15.375 C112.929041,13.708325 114.162753,12.3834685 115.738281,11.4003906 C117.31381,10.4173128 119.019522,9.92578125 120.855469,9.92578125 C122.1836,9.92578125 123.443353,10.1927057 124.634766,10.7265625 C125.826178,11.2604193 126.981765,12.1002547 128.101562,13.2460938 L128.101562,5.12109375 L124.136719,5.12109375 L124.136719,1.56640625 L132.105469,1.56640625 L132.105469,27.40625 L135.816406,27.40625 Z M121.5,27.7578125 C122.750006,27.7578125 123.876297,27.4257846 124.878906,26.7617188 C125.881515,26.0976529 126.669268,25.2122451 127.242188,24.1054688 C127.815107,22.9986924 128.101562,21.8138084 128.101562,20.5507812 C128.101562,19.2747332 127.815107,18.1093803 127.242188,17.0546875 C126.669268,15.9999947 125.875005,15.1666697 124.859375,14.5546875 C123.843745,13.9427053 122.697923,13.6367188 121.421875,13.6367188 C120.18489,13.6367188 119.081385,13.9654915 118.111328,14.6230469 C117.141271,15.2806022 116.376305,16.1529894 115.816406,17.2402344 C115.256508,18.3274794 114.976562,19.4895771 114.976562,20.7265625 C114.976562,22.0546941 115.263018,23.2525988 115.835938,24.3203125 C116.408857,25.3880262 117.190099,26.2278615 118.179688,26.8398438 C119.169276,27.451826 120.276036,27.7578125 121.5,27.7578125 Z M150.269531,11.3515625 L150.269531,10.4726562 L153.785156,10.4726562 L153.785156,17.2890625 L150.269531,17.2890625 L150.269531,16.0390625 C149.09765,14.3593666 147.496104,13.5195312 145.464844,13.5195312 C144.39713,13.5195312 143.524743,13.7539039 142.847656,14.2226562 C142.17057,14.6914086 141.832031,15.2968713 141.832031,16.0390625 C141.832031,16.7031283 142.08919,17.2239564 142.603516,17.6015625 C143.117841,17.9791686 144.273429,18.3111965 146.070312,18.5976562 L148.785156,19.125 C152.834656,19.8671912 154.859375,21.8528484 154.859375,25.0820312 C154.859375,26.9700615 154.12696,28.4869734 152.662109,29.6328125 C151.197258,30.7786516 149.253918,31.3515625 146.832031,31.3515625 C145.868485,31.3515625 144.921229,31.2115899 143.990234,30.9316406 C143.05924,30.6516913 142.281253,30.3033875 141.65625,29.8867188 L141.65625,31 L138.0625,31 L138.0625,23.96875 L141.65625,23.96875 L141.65625,24.671875 C141.851563,25.6614633 142.401688,26.4557262 143.306641,27.0546875 C144.211593,27.6536488 145.263015,27.953125 146.460938,27.953125 C147.776048,27.953125 148.811194,27.7220075 149.566406,27.2597656 C150.321618,26.7975237 150.699219,26.1106816 150.699219,25.1992188 C150.699219,24.5351529 150.399743,24.037111 149.800781,23.7050781 C149.20182,23.3730452 147.997405,23.0312518 146.1875,22.6796875 L144.097656,22.2304688 C142.027333,21.8138 140.510421,21.0976613 139.546875,20.0820312 C138.583329,19.0664012 138.101562,17.7708412 138.101562,16.1953125 C138.101562,14.9192645 138.456377,13.8287806 139.166016,12.9238281 C139.875655,12.0188757 140.783849,11.3385439 141.890625,10.8828125 C142.997401,10.4270811 144.136713,10.1992188 145.308594,10.1992188 C147.274749,10.1992188 148.928379,10.5833295 150.269531,11.3515625 Z M171.304688,5.6875 L167.710938,6.234375 C167.593749,4.90624336 167.085942,4.2421875 166.1875,4.2421875 C165.549476,4.2421875 165.123048,4.4700498 164.908203,4.92578125 C164.693358,5.3815127 164.585938,6.19530664 164.585938,7.3671875 L164.585938,10.4726562 L168.101562,10.4726562 L168.101562,14.0859375 L164.585938,14.0859375 L164.585938,27.40625 L168.453125,27.40625 L168.453125,31 L157.535156,31 L157.535156,27.40625 L160.542969,27.40625 L160.542969,14.0859375 L157.535156,14.0859375 L157.535156,10.4726562 L160.542969,10.4726562 L160.542969,7.2890625 C160.542969,5.41405313 161.001949,3.89063086 161.919922,2.71875 C162.837895,1.54686914 164.195304,0.9609375 165.992188,0.9609375 C167.47657,0.9609375 168.671219,1.35481377 169.576172,2.14257812 C170.481124,2.93034248 171.05729,4.11197129 171.304688,5.6875 Z M182.984375,11.3515625 L182.984375,10.4726562 L186.5,10.4726562 L186.5,17.2890625 L182.984375,17.2890625 L182.984375,16.0390625 C181.812494,14.3593666 180.210948,13.5195312 178.179688,13.5195312 C177.111974,13.5195312 176.239587,13.7539039 175.5625,14.2226562 C174.885413,14.6914086 174.546875,15.2968713 174.546875,16.0390625 C174.546875,16.7031283 174.804034,17.2239564 175.318359,17.6015625 C175.832685,17.9791686 176.988272,18.3111965 178.785156,18.5976562 L181.5,19.125 C185.549499,19.8671912 187.574219,21.8528484 187.574219,25.0820312 C187.574219,26.9700615 186.841804,28.4869734 185.376953,29.6328125 C183.912102,30.7786516 181.968762,31.3515625 179.546875,31.3515625 C178.583329,31.3515625 177.636072,31.2115899 176.705078,30.9316406 C175.774084,30.6516913 174.996097,30.3033875 174.371094,29.8867188 L174.371094,31 L170.777344,31 L170.777344,23.96875 L174.371094,23.96875 L174.371094,24.671875 C174.566407,25.6614633 175.116532,26.4557262 176.021484,27.0546875 C176.926437,27.6536488 177.977859,27.953125 179.175781,27.953125 C180.490892,27.953125 181.526038,27.7220075 182.28125,27.2597656 C183.036462,26.7975237 183.414062,26.1106816 183.414062,25.1992188 C183.414062,24.5351529 183.114586,24.037111 182.515625,23.7050781 C181.916664,23.3730452 180.712249,23.0312518 178.902344,22.6796875 L176.8125,22.2304688 C174.742177,21.8138 173.225265,21.0976613 172.261719,20.0820312 C171.298172,19.0664012 170.816406,17.7708412 170.816406,16.1953125 C170.816406,14.9192645 171.17122,13.8287806 171.880859,12.9238281 C172.590498,12.0188757 173.498692,11.3385439 174.605469,10.8828125 C175.712245,10.4270811 176.851557,10.1992188 178.023438,10.1992188 C179.989593,10.1992188 181.643222,10.5833295 182.984375,11.3515625 Z M215.738281,27.40625 L215.738281,31 L208.023438,31 L208.023438,27.9921875 C205.966136,30.231782 203.511733,31.3515625 200.660156,31.3515625 C198.68098,31.3515625 196.93295,30.8860724 195.416016,29.9550781 C193.899081,29.0240839 192.720707,27.7578205 191.880859,26.15625 C191.041011,24.5546795 190.621094,22.7838639 190.621094,20.84375 C190.621094,18.8645734 191.067053,17.041675 191.958984,15.375 C192.850916,13.708325 194.084628,12.3834685 195.660156,11.4003906 C197.235685,10.4173128 198.941397,9.92578125 200.777344,9.92578125 C202.105475,9.92578125 203.365228,10.1927057 204.556641,10.7265625 C205.748053,11.2604193 206.90364,12.1002547 208.023438,13.2460938 L208.023438,5.12109375 L204.058594,5.12109375 L204.058594,1.56640625 L212.027344,1.56640625 L212.027344,27.40625 L215.738281,27.40625 Z M201.421875,27.7578125 C202.671881,27.7578125 203.798172,27.4257846 204.800781,26.7617188 C205.80339,26.0976529 206.591143,25.2122451 207.164062,24.1054688 C207.736982,22.9986924 208.023438,21.8138084 208.023438,20.5507812 C208.023438,19.2747332 207.736982,18.1093803 207.164062,17.0546875 C206.591143,15.9999947 205.79688,15.1666697 204.78125,14.5546875 C203.76562,13.9427053 202.619798,13.6367188 201.34375,13.6367188 C200.106765,13.6367188 199.00326,13.9654915 198.033203,14.6230469 C197.063146,15.2806022 196.29818,16.1529894 195.738281,17.2402344 C195.178383,18.3274794 194.898438,19.4895771 194.898438,20.7265625 C194.898438,22.0546941 195.184893,23.2525988 195.757812,24.3203125 C196.330732,25.3880262 197.111974,26.2278615 198.101562,26.8398438 C199.091151,27.451826 200.197911,27.7578125 201.421875,27.7578125 Z M231.148438,5.6875 L227.554688,6.234375 C227.437499,4.90624336 226.929692,4.2421875 226.03125,4.2421875 C225.393226,4.2421875 224.966798,4.4700498 224.751953,4.92578125 C224.537108,5.3815127 224.429688,6.19530664 224.429688,7.3671875 L224.429688,10.4726562 L227.945312,10.4726562 L227.945312,14.0859375 L224.429688,14.0859375 L224.429688,27.40625 L228.296875,27.40625 L228.296875,31 L217.378906,31 L217.378906,27.40625 L220.386719,27.40625 L220.386719,14.0859375 L217.378906,14.0859375 L217.378906,10.4726562 L220.386719,10.4726562 L220.386719,7.2890625 C220.386719,5.41405313 220.845699,3.89063086 221.763672,2.71875 C222.681645,1.54686914 224.039054,0.9609375 225.835938,0.9609375 C227.32032,0.9609375 228.514969,1.35481377 229.419922,2.14257812 C230.324874,2.93034248 230.90104,4.11197129 231.148438,5.6875 Z" id="path-1"></path>
    </defs>
    <g id="Page-1" stroke="none" stroke-width="1" fill="none" fill-rule="evenodd">
        <g id="fdasgdsfsdf" fill-rule="nonzero" fill="#000000">
            <use xlink:href="#path-1"></use>
            <use xlink:href="#path-1"></use>
        </g>
    </g>
</svg>