<svg xmlns="http://www.w3.org/2000/svg" viewBox="0 0 103.58 11.02"><title>Asset 5</title><g id="Layer_2" data-name="Layer 2"><g id="Layer_1-2" data-name="Layer 1"><path d="M2.22,7.5,1.38,10H.3L3.05,2H4.31L7.06,10H6L5.08,7.5Zm2.65-.81L4.08,4.36c-.18-.53-.3-1-.42-1.48h0c-.12.48-.25,1-.4,1.47l-.8,2.34Z" transform="translate(-0.3 -1.53)"/><path d="M8.18,6.13c0-.74,0-1.34,0-1.89h.94l.05,1h0a2.28,2.28,0,0,1,2.06-1.12c1.4,0,2.46,1.18,2.46,2.95,0,2.08-1.27,3.12-2.64,3.12a2,2,0,0,1-1.79-.92h0v3.16H8.18ZM9.23,7.68a2.74,2.74,0,0,0,0,.43,1.65,1.65,0,0,0,1.59,1.24c1.11,0,1.76-.91,1.76-2.24C12.62,5.94,12,5,10.89,5A1.67,1.67,0,0,0,9.3,6.25a1.62,1.62,0,0,0-.07.44Z" transform="translate(-0.3 -1.53)"/><path d="M15,6.13c0-.74,0-1.34,0-1.89h.95l.05,1h0a2.3,2.3,0,0,1,2.07-1.12c1.4,0,2.45,1.18,2.45,2.95,0,2.08-1.27,3.12-2.63,3.12a2,2,0,0,1-1.79-.92h0v3.16H15Zm1,1.55a2.68,2.68,0,0,0,.05.43,1.64,1.64,0,0,0,1.59,1.24c1.11,0,1.76-.91,1.76-2.24,0-1.17-.61-2.16-1.73-2.16a1.67,1.67,0,0,0-1.59,1.3,1.63,1.63,0,0,0-.08.44Z" transform="translate(-0.3 -1.53)"/><path d="M25.05,10,25,9.31h0a2.14,2.14,0,0,1-1.77.87,1.66,1.66,0,0,1-1.78-1.67c0-1.4,1.25-2.17,3.49-2.16V6.23a1.19,1.19,0,0,0-1.32-1.34A2.84,2.84,0,0,0,22,5.32l-.24-.7a3.63,3.63,0,0,1,1.91-.51c1.78,0,2.21,1.21,2.21,2.37V8.65A8.32,8.32,0,0,0,26,10Zm-.15-3c-1.15,0-2.46.18-2.46,1.31a.94.94,0,0,0,1,1,1.45,1.45,0,0,0,1.41-1,1.2,1.2,0,0,0,.06-.33Z" transform="translate(-0.3 -1.53)"/><path d="M27.62,1.53h1.06V10H27.62Z" transform="translate(-0.3 -1.53)"/><path d="M33.67,10l-.08-.73h0a2.16,2.16,0,0,1-1.78.87A1.65,1.65,0,0,1,30,8.51c0-1.4,1.25-2.17,3.49-2.16V6.23a1.19,1.19,0,0,0-1.32-1.34,2.84,2.84,0,0,0-1.51.43l-.24-.7a3.61,3.61,0,0,1,1.91-.51c1.77,0,2.2,1.21,2.2,2.37V8.65a8.24,8.24,0,0,0,.1,1.39Zm-.16-3c-1.15,0-2.46.18-2.46,1.31a.94.94,0,0,0,1,1,1.42,1.42,0,0,0,1.4-1,.92.92,0,0,0,.06-.33Z" transform="translate(-0.3 -1.53)"/><path d="M40.38,9.83a4,4,0,0,1-1.67.33,2.75,2.75,0,0,1-2.89-3,2.94,2.94,0,0,1,3.12-3.08,3.44,3.44,0,0,1,1.46.3l-.24.81A2.5,2.5,0,0,0,38.94,5a2,2,0,0,0-2,2.19,2,2,0,0,0,2,2.17A3.07,3.07,0,0,0,40.2,9Z" transform="translate(-0.3 -1.53)"/><path d="M41.61,1.53h1.06V5.15h0a2,2,0,0,1,.76-.74,2.16,2.16,0,0,1,1.08-.3c.78,0,2,.48,2,2.48V10H45.5V6.71c0-.94-.35-1.73-1.34-1.73A1.51,1.51,0,0,0,42.74,6a1.26,1.26,0,0,0-.07.5V10H41.61Z" transform="translate(-0.3 -1.53)"/><path d="M49.45,2.61a.62.62,0,0,1-.67.65.63.63,0,0,1-.64-.65A.65.65,0,0,1,48.8,2,.63.63,0,0,1,49.45,2.61ZM48.27,10V4.24h1.06V10Z" transform="translate(-0.3 -1.53)"/><path d="M54.3,10l-.09-.73h0a2.17,2.17,0,0,1-1.78.87,1.65,1.65,0,0,1-1.77-1.67c0-1.4,1.24-2.17,3.49-2.16V6.23A1.19,1.19,0,0,0,52.8,4.89a2.81,2.81,0,0,0-1.51.43l-.24-.7A3.6,3.6,0,0,1,53,4.11c1.78,0,2.21,1.21,2.21,2.37V8.65a7.31,7.31,0,0,0,.1,1.39Zm-.16-3c-1.15,0-2.46.18-2.46,1.31a.94.94,0,0,0,1,1,1.44,1.44,0,0,0,1.4-1,.92.92,0,0,0,.06-.33Z" transform="translate(-0.3 -1.53)"/><path d="M56.87,5.81c0-.6,0-1.09,0-1.57h.93l.06,1h0a2.14,2.14,0,0,1,1.92-1.09c.8,0,2.05.48,2.05,2.47V10H60.75V6.7c0-.94-.35-1.72-1.34-1.72A1.5,1.5,0,0,0,58,6.06a1.75,1.75,0,0,0-.07.49V10H56.87Z" transform="translate(-0.3 -1.53)"/><path d="M66.11,2h4.35v.88H67.15V5.52h3.06v.87H67.15V10h-1Z" transform="translate(-0.3 -1.53)"/><path d="M71.71,1.53h1.06V10H71.71Z" transform="translate(-0.3 -1.53)"/><path d="M77.76,10l-.09-.73h0a2.17,2.17,0,0,1-1.78.87,1.65,1.65,0,0,1-1.77-1.67c0-1.4,1.24-2.17,3.49-2.16V6.23a1.2,1.2,0,0,0-1.32-1.34,2.81,2.81,0,0,0-1.51.43l-.24-.7a3.6,3.6,0,0,1,1.9-.51c1.78,0,2.21,1.21,2.21,2.37V8.65a7.31,7.31,0,0,0,.1,1.39Zm-.16-3c-1.15,0-2.46.18-2.46,1.31a.94.94,0,0,0,1,1,1.44,1.44,0,0,0,1.4-1,.92.92,0,0,0,.06-.33Z" transform="translate(-0.3 -1.53)"/><path d="M85.33,4.24c0,.42,0,.89,0,1.59V9.2a3.3,3.3,0,0,1-.83,2.65,3.06,3.06,0,0,1-2.11.7,3.78,3.78,0,0,1-1.93-.48l.26-.8a3.32,3.32,0,0,0,1.71.45c1.08,0,1.87-.56,1.87-2V9.05h0a2.05,2.05,0,0,1-1.84,1,2.59,2.59,0,0,1-2.47-2.83,2.78,2.78,0,0,1,2.61-3.08,1.92,1.92,0,0,1,1.81,1h0l0-.87ZM84.24,6.53a1.75,1.75,0,0,0-.06-.48A1.54,1.54,0,0,0,82.7,4.93c-1,0-1.73.86-1.73,2.2,0,1.14.58,2.09,1.72,2.09a1.54,1.54,0,0,0,1.46-1.08,1.88,1.88,0,0,0,.09-.57Z" transform="translate(-0.3 -1.53)"/><path d="M95.26,9.78a5.2,5.2,0,0,1-2.13.38,3.78,3.78,0,0,1-4-4.09,4,4,0,0,1,4.23-4.24,4.2,4.2,0,0,1,1.91.36L95,3a3.8,3.8,0,0,0-1.63-.34A3,3,0,0,0,90.24,6a2.94,2.94,0,0,0,3.1,3.25A4.1,4.1,0,0,0,95.05,9Z" transform="translate(-0.3 -1.53)"/><path d="M101.66,7.09a2.84,2.84,0,0,1-2.89,3.09,2.76,2.76,0,0,1-2.78-3,2.83,2.83,0,0,1,2.87-3.08A2.75,2.75,0,0,1,101.66,7.09Zm-4.61.06c0,1.27.74,2.23,1.77,2.23s1.76-.94,1.76-2.25c0-1-.49-2.23-1.74-2.23S97.05,6.05,97.05,7.15Z" transform="translate(-0.3 -1.53)"/><path d="M102.45,9.42a.72.72,0,0,1,.72-.76.71.71,0,0,1,.71.76.7.7,0,0,1-.72.76A.71.71,0,0,1,102.45,9.42Z" transform="translate(-0.3 -1.53)"/></g></g></svg>